<svg width="41" height="40" viewBox="0 0 41 40" fill="none" xmlns="http://www.w3.org/2000/svg">
<path d="M3.62671 24.8796C5.84808 25.1969 7.96367 25.4085 10.185 24.9854C13.3584 24.3507 15.8971 22.764 18.2243 20.7542C15.0509 20.9657 12.3006 19.0617 10.2908 16.7345C7.85789 13.6669 6.48276 9.75309 7.43478 5.83924C8.28101 2.98319 10.5024 -0.29598 13.7816 0.021359C15.1567 0.127139 15.474 1.71383 15.2625 2.98319C14.8394 5.5219 14.6278 7.74327 15.0509 10.282C15.6856 13.3496 17.2723 15.7825 19.1763 18.1097C19.1763 15.571 20.3399 13.2438 22.0324 11.4456C22.2439 11.3398 22.3497 11.1282 22.5613 10.9167C26.1578 7.74327 31.5525 5.83924 35.9953 8.27217C38.1109 9.54153 40.5438 11.5513 39.9091 14.1958C39.5918 15.2536 38.3224 15.571 37.2646 15.4652C34.7259 15.0421 32.293 14.6189 29.7543 15.1478C27.004 15.7825 24.6769 16.8403 22.5613 18.6386C22.4555 18.7444 22.4555 18.8501 22.2439 18.9559C29.0138 19.5906 33.6681 26.8894 32.5045 33.4477C32.293 34.8229 31.7641 35.9864 30.9179 37.15C29.6485 38.8425 27.5329 40.535 25.4173 39.5829C25.3115 39.4772 25.2058 39.3714 25.1 39.2656C24.7826 38.8425 24.5711 38.3136 24.5711 37.7847C24.7826 34.8229 25.6289 31.7552 24.5711 28.7934C24.5711 28.6876 24.5711 28.4761 24.5711 28.3703C23.8306 26.0431 22.667 23.9276 20.9746 22.1293C20.9746 25.0911 19.2821 27.7356 16.9549 29.6397C16.426 30.0628 15.8971 30.4859 15.2625 30.8032C12.8295 32.0726 10.2908 33.0246 7.54056 32.813C5.00184 32.6015 2.67469 31.4379 1.088 29.4281C0.34754 28.4761 -0.287138 27.3125 0.135981 26.0431C0.664879 24.668 2.35735 24.5622 3.62671 24.8796Z" fill="#393939"/>
</svg>
