<svg width="36" height="36" viewBox="0 0 36 36" fill="none" xmlns="http://www.w3.org/2000/svg">
<path d="M34.989 30.1106C33.9619 29.0835 24.7292 21.1239 19.808 18C24.7292 14.8761 33.9619 6.91649 34.989 5.88945C36.337 4.54146 36.337 2.35899 34.989 1.011C33.641 -0.336998 31.4585 -0.336998 30.1105 1.011C29.0835 2.03804 21.1239 11.2707 18 16.192C14.876 11.2707 6.91646 2.03804 5.88942 1.011C4.54143 -0.336998 2.35896 -0.336998 1.01097 1.011C-0.337029 2.35899 -0.337029 4.54146 1.01097 5.88945C2.03801 6.91649 11.2707 14.8761 16.1919 18C11.2707 21.1239 2.03801 29.0835 1.01097 30.1106C-0.337029 31.4585 -0.337029 33.641 1.01097 34.989C2.35896 36.337 4.54143 36.337 5.88942 34.989C6.91646 33.962 14.876 24.7293 18 19.808C21.1239 24.7293 29.0835 33.962 30.1105 34.989C31.4585 36.337 33.641 36.337 34.989 34.989C36.337 33.641 36.337 31.4585 34.989 30.1106Z" fill="#393939"/>
</svg>
