<svg width="69" height="69" viewBox="0 0 69 69" fill="none" xmlns="http://www.w3.org/2000/svg">
<path d="M34.0637 0C15.2505 0 0 15.2505 0 34.0637C0 52.8769 15.2505 68.1274 34.0637 68.1274C52.8769 68.1274 68.1274 52.8769 68.1274 34.0637C68.1274 15.2505 52.8769 0 34.0637 0ZM52.3497 40.0076C56.1124 44.8972 51.1864 51.6954 45.3698 49.6232C45.5334 55.8034 37.5537 58.4027 34.0637 53.2949C30.5737 58.3845 22.594 55.8034 22.7576 49.6232C16.941 51.6954 11.9968 44.8972 15.7776 40.0076C9.85193 38.2626 9.85193 29.8648 15.7776 28.1198C12.015 23.2302 16.941 16.432 22.7576 18.5042C22.594 12.324 30.5737 9.72469 34.0637 14.8324C37.5537 9.74287 45.5334 12.324 45.3698 18.5042C51.1864 16.432 56.1306 23.2302 52.3497 28.1198C58.2936 29.8648 58.2936 38.2626 52.3497 40.0076Z" fill="#393939"/>
</svg>
