<svg width="49" height="49" viewBox="0 0 49 49" fill="none" xmlns="http://www.w3.org/2000/svg">
<g clip-path="url(#clip0_5_2625)">
<path d="M48.8518 17.3415L24.8113 0.0779418C24.6779 -0.0258992 24.4852 -0.0258992 24.337 0.0779418L0.133423 17.3415C0.0444942 17.4064 3.05176e-05 17.4973 3.05176e-05 17.5881V48.6756C3.05176e-05 48.8573 0.163067 49.0001 0.370569 49.0001H48.6295C48.837 49.0001 49 48.8573 49 48.6756V17.6011C48.9852 17.4973 48.9259 17.4064 48.8518 17.3415ZM48.2441 48.364H0.726285V17.7569L24.5741 0.752909L48.2441 17.7569V48.364Z" fill="black"/>
<path d="M4.69846 19.4313C4.60953 19.4962 4.56506 19.587 4.56506 19.6779V44.9762C4.56506 45.1579 4.7281 45.3007 4.9356 45.3007H44.2127C44.4202 45.3007 44.5832 45.1579 44.5832 44.9762V19.6779C44.5832 19.587 44.5387 19.4832 44.4498 19.4313L24.8706 5.37378C24.7372 5.26994 24.5445 5.26994 24.3963 5.37378L4.69846 19.4313ZM43.8421 19.8336V44.6646H5.30614V19.8336L24.6334 6.03577L43.8421 19.8336Z" fill="black"/>
<path d="M9.5006 41.6013H39.8106C40.0181 41.6013 40.1812 41.4585 40.1812 41.2768V21.7547C40.1812 21.6638 40.1367 21.56 40.0478 21.5081L24.9446 10.6567C24.8113 10.5528 24.6186 10.5528 24.4704 10.6567L9.26346 21.5081C9.17453 21.573 9.13007 21.6638 9.13007 21.7547V41.2768C9.13007 41.4585 9.30792 41.6013 9.5006 41.6013ZM9.87114 21.9105L24.7075 11.3316L39.4401 21.9105V40.9523H9.87114V21.9105Z" fill="black"/>
<path d="M25.0188 15.9526C24.8854 15.8487 24.6927 15.8487 24.5445 15.9526L13.8434 23.5849C13.7544 23.6498 13.71 23.7407 13.71 23.8315V37.5775C13.71 37.7592 13.873 37.902 14.0805 37.902H35.4087C35.6162 37.902 35.7792 37.7592 35.7792 37.5775V23.8315C35.7792 23.7407 35.7348 23.6368 35.6458 23.5849L25.0188 15.9526ZM35.0382 37.253H14.451V23.9873L24.7816 16.6146L35.0382 23.9873V37.253Z" fill="black"/>
<path d="M18.4233 25.6617C18.3344 25.7266 18.2899 25.8175 18.2899 25.9083V33.8781C18.2899 34.0598 18.4529 34.2026 18.6604 34.2026H31.0216C31.2291 34.2026 31.3921 34.0598 31.3921 33.8781V25.9083C31.3921 25.8175 31.3477 25.7136 31.2587 25.6617L25.093 21.2355C24.9596 21.1316 24.7669 21.1316 24.6187 21.2355L18.4233 25.6617ZM30.651 26.0771V33.5666H19.031V26.0771L24.8558 21.9234L30.651 26.0771Z" fill="black"/>
</g>
<defs>
<clipPath id="clip0_5_2625">
<rect width="49" height="49" fill="white"/>
</clipPath>
</defs>
</svg>
