<svg width="43" height="43" viewBox="0 0 43 43" fill="none" xmlns="http://www.w3.org/2000/svg">
<path d="M27.6909 17.1588L22.0354 20.9118L25.7884 15.2667C29.3022 9.97516 27.0879 2.32368 21.5052 0.452393C15.9121 2.33408 13.6978 9.98556 17.2116 15.2667L20.9646 20.9118L15.3196 17.1588C10.028 13.645 2.3765 15.8593 0.494812 21.4524C2.3765 27.0455 10.028 29.2598 15.3092 25.746L20.9542 21.993L17.2012 27.638C13.6978 32.9296 15.9121 40.5811 21.5052 42.4524C27.0983 40.5707 29.3126 32.9192 25.7988 27.638L22.0458 21.993L27.6909 25.746C32.9824 29.2598 40.6235 27.0455 42.5052 21.4524C40.6235 15.8593 32.9824 13.645 27.6909 17.1588Z" fill="#393939"/>
</svg>
