<svg width="50" height="51" viewBox="0 0 50 51" fill="none" xmlns="http://www.w3.org/2000/svg">
<g filter="url(#filter0_d_5_3016)">
<path d="M45.5591 21.6122C45.5591 19.4172 42.5837 17.4564 37.9205 16.1686C40.4277 11.8469 41.2081 8.24706 39.618 6.6569C38.0473 5.08625 34.4963 5.83743 30.2331 8.28609C28.9453 3.50584 26.965 0.452332 24.7407 0.452332C22.5554 0.452332 20.5945 3.40828 19.3068 8.0422C15.0436 5.60329 11.5023 4.85211 9.94141 6.42276C8.33174 8.03244 9.16096 11.7201 11.756 16.1394C7.02448 17.4173 4.00024 19.3977 4.00024 21.6122C4.00024 23.8073 6.97571 25.7681 11.6389 27.0559C9.37559 31.1435 8.7122 34.5287 10.2341 36.0408C11.7657 37.5724 15.1997 36.8895 19.3458 34.5677C20.6336 39.1138 22.5749 42.0112 24.7309 42.0112C26.9357 42.0112 28.8966 39.0163 30.1941 34.3238C34.3499 36.6554 37.7839 37.348 39.3253 35.8067C40.8179 34.3141 40.2131 31.0264 38.0376 27.0266C42.6325 25.7389 45.5591 23.7878 45.5591 21.6122Z" fill="#393939"/>
</g>
<defs>
<filter id="filter0_d_5_3016" x="0" y="0.452332" width="49.5591" height="49.5589" filterUnits="userSpaceOnUse" color-interpolation-filters="sRGB">
<feFlood flood-opacity="0" result="BackgroundImageFix"/>
<feColorMatrix in="SourceAlpha" type="matrix" values="0 0 0 0 0 0 0 0 0 0 0 0 0 0 0 0 0 0 127 0" result="hardAlpha"/>
<feOffset dy="4"/>
<feGaussianBlur stdDeviation="2"/>
<feComposite in2="hardAlpha" operator="out"/>
<feColorMatrix type="matrix" values="0 0 0 0 0 0 0 0 0 0 0 0 0 0 0 0 0 0 0.25 0"/>
<feBlend mode="normal" in2="BackgroundImageFix" result="effect1_dropShadow_5_3016"/>
<feBlend mode="normal" in="SourceGraphic" in2="effect1_dropShadow_5_3016" result="shape"/>
</filter>
</defs>
</svg>
