<svg width="42" height="43" viewBox="0 0 42 43" fill="none" xmlns="http://www.w3.org/2000/svg">
<path d="M41.5591 21.6122C41.5591 19.4172 38.5837 17.4564 33.9205 16.1686C36.4277 11.8469 37.2081 8.24706 35.618 6.6569C34.0473 5.08625 30.4963 5.83743 26.2331 8.28609C24.9453 3.50584 22.965 0.452332 20.7407 0.452332C18.5554 0.452332 16.5945 3.40828 15.3068 8.0422C11.0436 5.60329 7.50231 4.85211 5.94141 6.42276C4.33174 8.03244 5.16096 11.7201 7.75595 16.1394C3.02448 17.4173 0.000244141 19.3977 0.000244141 21.6122C0.000244141 23.8073 2.97571 25.7681 7.63889 27.0559C5.37559 31.1435 4.7122 34.5287 6.23408 36.0408C7.76571 37.5724 11.1997 36.8895 15.3458 34.5677C16.6336 39.1138 18.5749 42.0112 20.7309 42.0112C22.9357 42.0112 24.8966 39.0163 26.1941 34.3238C30.3499 36.6554 33.7839 37.348 35.3253 35.8067C36.8179 34.3141 36.2131 31.0264 34.0376 27.0266C38.6325 25.7389 41.5591 23.7878 41.5591 21.6122Z" fill="#393939"/>
</svg>
