<svg width="47" height="47" viewBox="0 0 47 47" fill="none" xmlns="http://www.w3.org/2000/svg">
<path d="M44.6776 19.5407L23.5742 22.8568L40.7524 10.3368C40.7524 7.53956 38.4853 5.28371 35.6993 5.28371L23.4614 22.0785L26.6872 1.55028C24.7134 -0.423581 21.5101 -0.423581 19.5362 1.55028L22.8297 22.5522L10.2534 5.28371C7.45615 5.28371 5.2003 7.55084 5.2003 10.3368L22.3109 22.8004L1.54583 19.5407C-0.428037 21.5145 -0.428037 24.7178 1.54583 26.6917L22.1191 23.4658L5.2003 35.7828C5.2003 38.58 7.46743 40.8359 10.2534 40.8359L22.8523 23.5448L19.5362 44.6821C21.5101 46.6559 24.7134 46.6559 26.6872 44.6821L23.4388 24.0185L35.6993 40.8471C38.4966 40.8471 40.7524 38.58 40.7524 35.794L23.7772 23.4094L44.6889 26.6917C46.6515 24.7178 46.6515 21.5145 44.6776 19.5407Z" fill="#393939"/>
</svg>
