<svg width="41" height="41" viewBox="0 0 41 41" fill="none" xmlns="http://www.w3.org/2000/svg">
<path d="M21.7779 9.44444C26.3335 8.88889 29.7779 4.55556 29.3335 0C29.6668 0.444444 30.1113 1 30.3335 1.55556C30.5557 2.11111 30.889 2.55556 31.1113 3C33.889 8.88889 34.1113 15.7778 31.5557 21.7778C31.889 23.4444 32.5557 25.1111 33.6668 26.4444C35.5557 28.5556 38.3335 29.4444 41.0002 29.3333C35.7779 33 29.2224 34.2222 22.889 32.7778C22.4446 32.6667 22.1113 32.5556 21.6668 32.4444C20.7779 32.2222 20.0002 31.8889 19.2224 31.5556C16.4446 32.1111 13.7779 33.6667 12.5557 36.3333C12.4446 36.5556 12.3335 36.8889 12.2224 37.1111C11.7779 38.3333 11.5557 39.6667 11.6668 41C7.22238 34.7778 6.4446 26.2222 9.4446 19.2222C8.88905 16.4444 7.33349 13.7778 4.66682 12.5556C4.4446 12.4444 4.11127 12.3333 3.88905 12.2222C2.66682 11.7778 1.33349 11.5556 0.000156403 11.6667C0.444601 11.3333 1.00016 11.1111 1.55571 10.7778C4.66682 8.77778 8.11127 8 11.5557 7.77778C15.0002 7.44444 18.5557 8.11111 21.7779 9.44444Z" fill="#393939"/>
</svg>
