<svg width="130" height="131" viewBox="0 0 130 131" fill="none" xmlns="http://www.w3.org/2000/svg">
<path d="M82.8208 55.2501C87.1882 54.3766 91.2644 52.3385 94.7584 49.4269C95.3407 48.8445 95.923 47.9711 96.7965 47.3887C104.949 39.2362 108.152 27.5897 107.861 16.5256C111.937 36.9069 103.784 60.7822 84.5677 70.6817C99.1258 79.9988 118.634 73.011 129.698 61.0733C122.419 72.1375 111.355 80.29 98.2523 83.4928C97.0877 83.7839 95.6319 84.0751 94.4672 84.3663C92.1379 84.6574 89.5175 84.9486 87.1882 84.9486C83.1119 84.6574 79.0357 84.3663 74.9594 82.9105C79.0357 99.7978 97.67 109.115 113.975 107.95C93.5937 112.027 69.4273 103.874 59.5278 84.6574C54.2869 92.8099 54.2869 103.292 57.4897 112.318C59.819 119.014 64.1864 124.838 69.1362 130.079C61.8571 124.547 55.1604 117.85 50.793 109.406C49.046 105.912 47.5902 102.418 46.7167 98.342C44.9697 90.4807 44.9697 82.6193 47.299 75.0491C30.4117 79.1253 21.6768 97.7597 22.2591 114.065C18.1829 93.3923 26.3354 69.8082 45.5521 59.6175C40.02 56.1236 33.3233 54.9589 26.9177 55.5413C16.4359 56.7059 7.4099 62.238 0.130859 69.517C11.4862 53.5031 31.2852 41.8567 51.9576 46.5153C53.1223 46.8064 53.9958 47.3887 55.1604 47.3887C53.9958 42.439 51.6665 38.0716 48.1725 34.5776C47.5902 33.9953 46.7167 33.413 46.1344 32.5395C37.9819 24.9693 26.9177 22.3488 16.1447 22.3488C36.8172 18.5637 60.4013 26.4251 70.592 45.6418C79.618 31.0837 72.9213 11.2847 60.6925 0.511719C78.1622 11.867 89.2263 34.5776 82.8208 55.2501Z" fill="#393939"/>
</svg>
