<svg width="56" height="56" viewBox="0 0 56 56" fill="none" xmlns="http://www.w3.org/2000/svg">
<path d="M55.0779 19.9335L48.0758 7.82144C45.9007 9.07287 36.813 15.8515 31.2262 21.3637C33.2077 13.7657 34.5336 2.50286 34.5336 0H20.5444C20.5444 2.50286 21.8703 13.7806 23.8517 21.3637C18.265 15.8515 9.16232 9.07287 7.00211 7.82144L6.10352e-05 19.9335C2.17517 21.1849 12.5889 25.6841 20.157 27.7549C12.5889 29.8407 2.17517 34.3249 6.10352e-05 35.5764L7.00211 47.6884C9.17722 46.437 18.265 39.6584 23.8517 34.1462C21.8703 41.7441 20.5444 53.007 20.5444 55.5099H34.5336C34.5336 53.007 33.2077 41.7292 31.2262 34.1462C36.813 39.6584 45.9156 46.437 48.0758 47.6884L55.0779 35.5764C52.9028 34.3249 42.4891 29.8258 34.9209 27.7549C42.4891 25.6692 52.9028 21.1849 55.0779 19.9335Z" fill="#393939"/>
</svg>
